<?xml version="1.0" encoding="UTF-8" standalone="no"?>
<!DOCTYPE svg PUBLIC "-//W3C//DTD SVG 1.1//EN" "http://www.w3.org/Graphics/SVG/1.1/DTD/svg11.dtd">
<svg width="100%" height="100%" viewBox="0 0 512 512" version="1.1" xmlns="http://www.w3.org/2000/svg" xmlns:xlink="http://www.w3.org/1999/xlink" xml:space="preserve" xmlns:serif="http://www.serif.com/" style="fill-rule:evenodd;clip-rule:evenodd;stroke-linejoin:round;stroke-miterlimit:2;">
    <g transform="matrix(0.849088,0,0,0.86927,36.5108,29.5552)">
        <path d="M560,27.554C560,-6.419 531.763,-34 496.983,-34L20.017,-34C-14.763,-34 -43,-6.419 -43,27.554L-43,493.446C-43,527.419 -14.763,555 20.017,555L496.983,555C531.763,555 560,527.419 560,493.446L560,27.554Z" style="fill:rgb(43,42,41);"/>
    </g>
    <g transform="matrix(1.6295,0,0,1.6295,74.8,142.098)">
        <path d="M146.7,130.2L135,130.2L132,139.2L125.5,139.2L138.9,100.7L146.9,100.7L160.3,139.2L153.2,139.2L142.6,107.6L136.8,124.5L145,124.5L146.7,130.2ZM29.7,100.8L29.7,126.2C29.7,135.1 23.9,139.8 14.8,139.8C5.8,139.8 -0,135.1 -0,126.2L-0,100.8L6.5,100.8L6.5,126.2C6.5,131.4 9.7,134.1 14.7,134.1C19.9,134.1 23.1,131.4 23.1,126.2L23.1,100.8L29.7,100.8ZM50.9,112.7L50.9,139.2L44.4,139.2L44.4,100.7L50.5,100.7L67.5,127.2L67.5,100.7L74,100.7L74,139.2L67.9,139.2L50.9,112.7ZM171.3,100.8L177.8,100.8L177.8,139.3L171.3,139.3L171.3,100.8ZM222.4,125.4C222.4,134.4 216.5,139.2 207.2,139.2L192.7,139.2L192.7,100.7L207.3,100.7C216.5,100.7 222.4,105.5 222.4,114.5L222.4,125.4ZM215.8,114.6C215.8,109.3 212.5,106.5 207.3,106.5L199.2,106.5L199.2,133.6L207.2,133.6C212.5,133.6 215.8,130.8 215.8,125.5L215.8,114.6ZM108.3,124.7C112.6,123.1 115.2,119.4 115.2,113.2C115.2,104.5 110.1,100.8 102.4,100.8L88.8,100.8L88.8,139.3L95.3,139.3L95.3,106.5L102.2,106.5C106,106.5 108.4,108.3 108.4,113.2C108.4,118.1 106,120 102.2,120L98.8,120L108,139.4L115.5,139.4L108.3,124.7Z" style="fill:white;fill-rule:nonzero;"/>
    </g>
    <g transform="matrix(1.6295,0,0,1.6295,74.8,142.098)">
        <path d="M107.8,19.2L114.3,19.2L114.3,57.7L107.8,57.7L107.8,19.2ZM50.9,57.7L44.4,57.7L44.4,19.2L50.9,19.2L50.9,57.7ZM76.1,62.3L82.6,62.3L82.6,77L76.1,77L76.1,62.3ZM60.2,45.8L66.7,45.8L66.7,69.6L60.2,69.6L60.2,45.8ZM91.9,45.8L98.4,45.8L98.4,69.6L91.9,69.6L91.9,45.8ZM171.3,19.2L177.8,19.2L177.8,57.7L171.3,57.7L171.3,19.2ZM146.1,14.7L139.6,14.7L139.6,0L146.1,0L146.1,14.7ZM162,31.1L155.5,31.1L155.5,7.4L162,7.4L162,31.1ZM130.2,31.1L123.7,31.1L123.7,7.4L130.2,7.4L130.2,31.1Z" style="fill:url(#_Linear1);fill-rule:nonzero;"/>
    </g>
    <defs>
        <linearGradient id="_Linear1" x1="0" y1="0" x2="1" y2="0" gradientUnits="userSpaceOnUse" gradientTransform="matrix(86.003,-86.003,86.003,86.003,68.07,81.489)"><stop offset="0" style="stop-color:rgb(227,41,41);stop-opacity:1"/><stop offset="1" style="stop-color:rgb(255,141,48);stop-opacity:1"/></linearGradient>
    </defs>
</svg>
